<svg clip-rule="evenodd" fill-rule="evenodd" stroke-linecap="round" stroke-linejoin="round" viewBox="0 0 1000 1000" xmlns="http://www.w3.org/2000/svg"><path d="m-4.45442-5.85701h1005.10442v1009.18701h-1005.10442z" fill="#444649" fill-opacity=".664062"/><path d="m185.361 274.33h619.586c2.664 0 4.824 2.166 4.824 4.839v443.851c0 2.672-2.16 4.839-4.824 4.839h-619.586c-2.665 0-4.824-2.167-4.824-4.839v-443.851c0-2.673 2.159-4.839 4.824-4.839z" fill="#dfe3e7"/><path d="m182.577 627.945h628.346v98.604h-628.346z" fill="#3f4042" stroke="#3f4143" stroke-linecap="round" stroke-linejoin="round" stroke-width="5"/><path d="m542.359 339.127 219.666 351.38h-439.333z" fill="#3f4042"/><path d="m621.061 446.141 64.079-83.741 126.054 189.145 1.089 81.84-70.723 3.4z" fill="#3f4042"/><path d="m235.619 370.687c0-25.8 22.073-46.715 49.302-46.715s49.302 20.915 49.302 46.715-22.073 46.716-49.302 46.716-49.302-20.916-49.302-46.716z" fill="#3f4042"/><path d="m182.36 270.272h625.379c2.885 0 5.224 2.377 5.224 5.31v451.097c0 2.933-2.339 5.31-5.224 5.31h-625.379c-2.885 0-5.224-2.377-5.224-5.31v-451.097c0-2.933 2.339-5.31 5.224-5.31z" fill="none" stroke="#131414" stroke-linecap="round" stroke-linejoin="round" stroke-width="17.93"/><path d="m56.1698 400.6h62.0182c15.529 0 28.117 13.181 28.117 29.439v141.285c0 16.259-12.588 29.439-28.117 29.439h-62.0182c-15.5286 0-28.117-13.18-28.117-29.439v-141.285c0-16.258 12.5884-29.439 28.117-29.439z" fill="#464a4f"/><path d="m879.117 393.303h62.019c15.528 0 28.117 13.181 28.117 29.439v141.285c0 16.258-12.589 29.439-28.117 29.439h-62.019c-15.528 0-28.117-13.181-28.117-29.439v-141.285c0-16.258 12.589-29.439 28.117-29.439z" fill="#464a4f"/><path d="m860.034 39.7055h70.312c17.605 0 31.877 8.9408 31.877 19.9698v95.8397c0 11.029-14.272 19.97-31.877 19.97h-70.312c-17.605 0-31.877-8.941-31.877-19.97v-95.8397c0-11.029 14.272-19.9698 31.877-19.9698z" fill="#464a4f"/><g fill="none"><path d="m112.294 442.663-54.0313 58.961 54.0313 60.776" stroke="#cccdce" stroke-linecap="round" stroke-linejoin="round" stroke-width="13.12"/><path d="m887.76 551.888 53.969-59.018-54.096-60.719" stroke="#cccdce" stroke-linecap="round" stroke-linejoin="round" stroke-width="13.12"/><path d="m895.802 463.641v-.811"/><path d="m862.56 73.653 68.917 70.538" stroke="#ded8d8" stroke-linecap="round" stroke-linejoin="round" stroke-width="13.26"/><path d="m932.288 74.4637-70.539 68.9173" stroke="#ded8d8" stroke-linecap="round" stroke-linejoin="round" stroke-width="13.26"/></g></svg>